<svg width="506" height="83" viewBox="0 0 506 83" fill="none" xmlns="http://www.w3.org/2000/svg">
<g clip-path="url(#clip0_204_17)">
<rect width="506" height="83" fill="white"/>
<path d="M126.1 67V17.768H169.552C181.588 17.768 187.436 21.032 187.436 30.688C187.436 39.12 184.376 40.752 180.16 41.976V42.18C186.756 42.996 189.204 46.532 189.204 53.944C189.204 64.756 182.812 67 174.176 67H126.1ZM141.196 47.484V55.168H168.26C171.524 55.168 173.7 54.42 173.7 51.564C173.7 48.232 171.524 47.484 168.26 47.484H141.196ZM141.196 29.6V37.284H167.92C170.708 37.284 172.34 36.264 172.34 33.476C172.34 30.62 170.708 29.6 167.92 29.6H141.196ZM202.5 67V17.768H217.596V67H202.5ZM232.045 67V17.768H255.233L272.301 49.456L289.369 17.768H312.557V67H297.869V31.64H297.733L277.945 67H266.657L246.869 31.64H246.733V67H232.045ZM322.551 30.008V17.768H380.079V30.008H358.863V67H343.767V30.008H322.551ZM390.052 67V17.768H405.148V54.352H439.08V67H390.052ZM462.779 67V49.864L435.511 17.768H453.735L470.327 37.896L486.919 17.768H505.143L477.875 49.864V67H462.779Z" fill="black"/>
<path d="M33.9036 0H5.35319C2.39704 0 0 2.39704 0 5.35319V33.9036C0 36.8597 2.39704 39.2568 5.35319 39.2568H24.9816V28.5504H10.7064V10.7064H28.5504V39.2568H39.2568V5.35319C39.2568 2.39704 36.8597 0 33.9036 0Z" fill="black"/>
<path d="M0 49.0964V77.6468C0 80.6029 2.39704 83 5.35319 83H33.9036C36.8597 83 39.2568 80.6029 39.2568 77.6468V58.0184H28.5504V72.2936H10.7064V54.4496H39.2568V43.7432H5.35319C2.39704 43.7432 0 46.1403 0 49.0964Z" fill="black"/>
<path d="M77.6468 43.7432H58.0185V54.4496H72.2937V72.2936H54.4497V43.7432H43.7433V77.6468C43.7433 80.6029 46.1403 83 49.0965 83H77.6468C80.603 83 83 80.6029 83 77.6468V49.0964C83 46.1403 80.603 43.7432 77.6468 43.7432Z" fill="black"/>
<path d="M77.6468 0H49.0965C46.1403 0 43.7433 2.39704 43.7433 5.35319V24.9816H54.4497V10.7064H72.2937V28.5504H43.7433V39.2568H77.6468C80.603 39.2568 83 36.8597 83 33.9036V5.35319C83 2.39704 80.603 0 77.6468 0Z" fill="#2563EB"/>
</g>
<defs>
<clipPath id="clip0_204_17">
<rect width="506" height="83" fill="white"/>
</clipPath>
</defs>
</svg>
