<svg width="83" height="83" viewBox="0 0 83 83" fill="none" xmlns="http://www.w3.org/2000/svg">
<g clip-path="url(#clip0_221_21)">
<path d="M33.9036 0H5.35319C2.39704 0 0 2.39704 0 5.35319V33.9036C0 36.8597 2.39704 39.2568 5.35319 39.2568H24.9816V28.5504H10.7064V10.7064H28.5504V39.2568H39.2568V5.35319C39.2568 2.39704 36.8597 0 33.9036 0Z" fill="white"/>
<path d="M0 49.0964V77.6468C0 80.6029 2.39704 83 5.35319 83H33.9036C36.8597 83 39.2568 80.6029 39.2568 77.6468V58.0184H28.5504V72.2936H10.7064V54.4496H39.2568V43.7432H5.35319C2.39704 43.7432 0 46.1403 0 49.0964Z" fill="white"/>
<path d="M77.6468 43.7432H58.0185V54.4496H72.2937V72.2936H54.4497V43.7432H43.7433V77.6468C43.7433 80.6029 46.1403 83 49.0965 83H77.6468C80.603 83 83 80.6029 83 77.6468V49.0964C83 46.1403 80.603 43.7432 77.6468 43.7432Z" fill="white"/>
<path d="M77.6468 0H49.0965C46.1403 0 43.7433 2.39704 43.7433 5.35319V24.9816H54.4497V10.7064H72.2937V28.5504H43.7433V39.2568H77.6468C80.603 39.2568 83 36.8597 83 33.9036V5.35319C83 2.39704 80.603 0 77.6468 0Z" fill="#2563EB"/>
</g>
<defs>
<clipPath id="clip0_221_21">
<rect width="83" height="83" fill="white"/>
</clipPath>
</defs>
</svg>
