<svg width="505" height="83" viewBox="0 0 505 83" fill="none" xmlns="http://www.w3.org/2000/svg">
<g clip-path="url(#clip0_221_8)">
<path d="M125.1 67V17.768H168.552C180.588 17.768 186.436 21.032 186.436 30.688C186.436 39.12 183.376 40.752 179.16 41.976V42.18C185.756 42.996 188.204 46.532 188.204 53.944C188.204 64.756 181.812 67 173.176 67H125.1ZM140.196 47.484V55.168H167.26C170.524 55.168 172.7 54.42 172.7 51.564C172.7 48.232 170.524 47.484 167.26 47.484H140.196ZM140.196 29.6V37.284H166.92C169.708 37.284 171.34 36.264 171.34 33.476C171.34 30.62 169.708 29.6 166.92 29.6H140.196ZM201.5 67V17.768H216.596V67H201.5ZM231.045 67V17.768H254.233L271.301 49.456L288.369 17.768H311.557V67H296.869V31.64H296.733L276.945 67H265.657L245.869 31.64H245.733V67H231.045ZM321.551 30.008V17.768H379.079V30.008H357.863V67H342.767V30.008H321.551ZM389.052 67V17.768H404.148V54.352H438.08V67H389.052ZM461.779 67V49.864L434.511 17.768H452.735L469.327 37.896L485.919 17.768H504.143L476.875 49.864V67H461.779Z" fill="white"/>
<path d="M33.9036 0H5.35319C2.39704 0 0 2.39704 0 5.35319V33.9036C0 36.8597 2.39704 39.2568 5.35319 39.2568H24.9816V28.5504H10.7064V10.7064H28.5504V39.2568H39.2568V5.35319C39.2568 2.39704 36.8597 0 33.9036 0Z" fill="white"/>
<path d="M0 49.0964V77.6468C0 80.6029 2.39704 83 5.35319 83H33.9036C36.8597 83 39.2568 80.6029 39.2568 77.6468V58.0184H28.5504V72.2936H10.7064V54.4496H39.2568V43.7432H5.35319C2.39704 43.7432 0 46.1403 0 49.0964Z" fill="white"/>
<path d="M77.6468 43.7432H58.0185V54.4496H72.2937V72.2936H54.4497V43.7432H43.7433V77.6468C43.7433 80.6029 46.1403 83 49.0965 83H77.6468C80.603 83 83 80.6029 83 77.6468V49.0964C83 46.1403 80.603 43.7432 77.6468 43.7432Z" fill="white"/>
<path d="M77.6468 0H49.0965C46.1403 0 43.7433 2.39704 43.7433 5.35319V24.9816H54.4497V10.7064H72.2937V28.5504H43.7433V39.2568H77.6468C80.603 39.2568 83 36.8597 83 33.9036V5.35319C83 2.39704 80.603 0 77.6468 0Z" fill="#2563EB"/>
</g>
<defs>
<clipPath id="clip0_221_8">
<rect width="505" height="83" fill="white"/>
</clipPath>
</defs>
</svg>
